# xmcd
#
# Track frame offsets:
#	150
#	17691
#	32732
#	47468
#	61642
#	79211
#	94695
#	108906
#	124250
#	139796
#	158597
#	171942
#	187087
#	203124
#	222168
#	238682
#	256331
#	272901
#
# Disc length: 3821 seconds
#
# Revision: 1
# Processed by: cddbd v1.5.2PL0 Copyright (c) Steve Scherf et al.
# Submitted via: audiograbber 1.82.02
#
DISCID=f50eeb12
DTITLE=Various Artist - Country Radio - January 209
DYEAR=2019
DGENRE=Country
TTITLE0=Luke Bryan - What Makes You Country (PO Clean Edit)
TTITLE1=Big and Rich - Brand New Buzz
TTITLE2=Taylon Hope - Could've Been A Country Song
TTITLE3=Smith and Wesley - A Little On The Redneck Side
TTITLE4=Jerrod Niemann - Old Glory
TTITLE5=David Adam Byrnes - Beer Bucket List
TTITLE6=Russell Dickerson - Every Little Thing
TTITLE7=Cort Carpenter - Ex 'Em
TTITLE8=Devin Dawson - Dark Horse
TTITLE9=Buffalo Ruckus - Carolina Calls
TTITLE10=Dianna - Andale YeeHaw
TTITLE11=Cole Swindell - Love You Too Late
TTITLE12=Truxton Mile - Never Happened
TTITLE13=Ryan Sims - Get Away
TTITLE14=Nora Collins - Plain Jane
TTITLE15=Brad Paisley - Bucked Off
TTITLE16=Cash Campbell - In Between, The
TTITLE17=Garth Brooks - Stronger Than Me (CMA 2018 Live Version)
EXTD=
EXTT0=
EXTT1=
EXTT2=
EXTT3=
EXTT4=
EXTT5=
EXTT6=
EXTT7=
EXTT8=
EXTT9=
EXTT10=
EXTT11=
EXTT12=
EXTT13=
EXTT14=
EXTT15=
EXTT16=
EXTT17=
PLAYORDER=
